<svg width="31" height="32" viewBox="0 0 31 32" fill="none" xmlns="http://www.w3.org/2000/svg">
<path d="M30.5 16C30.5 24.5755 23.7694 31.5 15.5 31.5C7.23057 31.5 0.5 24.5755 0.5 16C0.5 7.4245 7.23057 0.5 15.5 0.5C23.7694 0.5 30.5 7.4245 30.5 16Z" fill="white" stroke="white"/>
<path d="M15.9554 24.8721V16.3345H18.8356L19.2637 12.9918H15.9554V10.8627C15.9554 9.89809 16.2242 9.23768 17.6085 9.23768H19.3627V6.25747C18.5092 6.166 17.6513 6.12184 16.7929 6.12518C14.2471 6.12518 12.4992 7.67934 12.4992 10.5325V12.9856H9.6377V16.3283H12.5054V24.8721H15.9554Z" fill="#5C755E"/>
</svg>
