<svg width="31" height="32" viewBox="0 0 31 32" fill="none" xmlns="http://www.w3.org/2000/svg">
<path d="M30.5 16C30.5 24.5755 23.7694 31.5 15.5 31.5C7.23057 31.5 0.5 24.5755 0.5 16C0.5 7.4245 7.23057 0.5 15.5 0.5C23.7694 0.5 30.5 7.4245 30.5 16Z" fill="white" stroke="white"/>
<path d="M15.0002 13.7263C14.5505 13.7263 14.111 13.8597 13.7372 14.1095C13.3633 14.3593 13.0719 14.7143 12.8999 15.1297C12.7278 15.5451 12.6828 16.0022 12.7705 16.4432C12.8582 16.8842 13.0747 17.2892 13.3927 17.6072C13.7106 17.9251 14.1157 18.1416 14.5567 18.2293C14.9976 18.317 15.4547 18.272 15.8701 18.1C16.2855 17.9279 16.6406 17.6365 16.8904 17.2627C17.1402 16.8888 17.2735 16.4493 17.2735 15.9997C17.2735 15.7011 17.2147 15.4055 17.1004 15.1297C16.9862 14.8539 16.8188 14.6033 16.6077 14.3922C16.3966 14.1811 16.1459 14.0136 15.8701 13.8994C15.5943 13.7851 15.2987 13.7263 15.0002 13.7263ZM24.1027 11.4805C24.0978 10.7726 23.9675 10.0712 23.7177 9.40884C23.5337 8.92416 23.249 8.48401 22.8824 8.11743C22.5158 7.75084 22.0757 7.46617 21.591 7.28217C20.9286 7.03235 20.2272 6.902 19.5193 6.89717C18.3368 6.83301 17.9885 6.83301 15.0002 6.83301C12.0118 6.83301 11.6635 6.83301 10.481 6.89717C9.77311 6.902 9.07169 7.03235 8.40933 7.28217C7.92465 7.46617 7.4845 7.75084 7.11792 8.11743C6.75133 8.48401 6.46665 8.92416 6.28266 9.40884C6.03284 10.0712 5.90249 10.7726 5.89766 11.4805C5.8335 12.663 5.8335 13.0113 5.8335 15.9997C5.8335 18.988 5.8335 19.3363 5.89766 20.5188C5.90753 21.2292 6.03771 21.9328 6.28266 22.5997C6.46584 23.0821 6.75028 23.5197 7.11683 23.883C7.48184 24.2518 7.92294 24.5365 8.40933 24.7172C9.07169 24.967 9.77311 25.0974 10.481 25.1022C11.6635 25.1663 12.0118 25.1663 15.0002 25.1663C17.9885 25.1663 18.3368 25.1663 19.5193 25.1022C20.2272 25.0974 20.9286 24.967 21.591 24.7172C22.0774 24.5365 22.5185 24.2518 22.8835 23.883C23.25 23.5197 23.5345 23.0821 23.7177 22.5997C23.9672 21.9341 24.0976 21.2297 24.1027 20.5188C24.1668 19.3363 24.1668 18.988 24.1668 15.9997C24.1668 13.0113 24.1668 12.663 24.1027 11.4805ZM21.7743 18.8138C21.7449 19.3795 21.6242 19.9367 21.4168 20.4638C21.2389 20.9036 20.9743 21.303 20.6389 21.6384C20.3035 21.9738 19.904 22.2384 19.4643 22.4163C18.9322 22.6121 18.3719 22.7205 17.8052 22.7372C17.081 22.7372 16.8885 22.7372 15.0002 22.7372C13.1118 22.7372 12.9193 22.7372 12.1952 22.7372C11.6284 22.7205 11.0681 22.6121 10.536 22.4163C10.0814 22.2474 9.67092 21.9779 9.33516 21.628C9.00302 21.2992 8.74652 20.9019 8.5835 20.4638C8.38692 19.9323 8.28155 19.3713 8.27183 18.8047C8.27183 18.0805 8.27183 17.888 8.27183 15.9997C8.27183 14.1113 8.27183 13.9188 8.27183 13.1947C8.28155 12.628 8.38692 12.0671 8.5835 11.5355C8.75242 11.0809 9.02191 10.6704 9.37183 10.3347C9.70213 10.0043 10.099 9.74809 10.536 9.58301C11.0681 9.38721 11.6284 9.27887 12.1952 9.26217C12.9193 9.26217 13.1118 9.26217 15.0002 9.26217C16.8885 9.26217 17.081 9.26217 17.8052 9.26217C18.3719 9.27887 18.9322 9.38721 19.4643 9.58301C19.9189 9.75193 20.3294 10.0214 20.6652 10.3713C20.9973 10.7002 21.2538 11.0975 21.4168 11.5355C21.6126 12.0676 21.721 12.6279 21.7377 13.1947C21.7377 13.9188 21.7377 14.1113 21.7377 15.9997C21.7377 17.888 21.8018 18.0805 21.7743 18.8047V18.8138ZM20.3077 11.9938C20.1985 11.6977 20.0264 11.4288 19.8033 11.2057C19.5802 10.9826 19.3113 10.8105 19.0152 10.7013C18.6086 10.5604 18.1804 10.4921 17.7502 10.4997C17.0352 10.4997 16.8335 10.4997 15.0002 10.4997C13.1668 10.4997 12.9652 10.4997 12.2502 10.4997C11.8177 10.5039 11.3895 10.5846 10.9852 10.738C10.6936 10.8422 10.4275 11.0072 10.2047 11.2222C9.98185 11.4371 9.8073 11.6971 9.69266 11.9847C9.55954 12.3929 9.49451 12.8203 9.50016 13.2497C9.50016 13.9647 9.50016 14.1663 9.50016 15.9997C9.50016 17.833 9.50016 18.0347 9.50016 18.7497C9.50925 19.1816 9.58978 19.609 9.7385 20.0147C9.84764 20.3108 10.0197 20.5797 10.2429 20.8028C10.466 21.026 10.7349 21.198 11.031 21.3072C11.4221 21.451 11.8337 21.5315 12.2502 21.5455C12.9652 21.5455 13.1668 21.5455 15.0002 21.5455C16.8335 21.5455 17.0352 21.5455 17.7502 21.5455C18.1826 21.5413 18.6108 21.4606 19.0152 21.3072C19.3113 21.198 19.5802 21.026 19.8033 20.8028C20.0264 20.5797 20.1985 20.3108 20.3077 20.0147C20.4611 19.6104 20.5418 19.1821 20.546 18.7497C20.546 18.0347 20.546 17.833 20.546 15.9997C20.546 14.1663 20.546 13.9647 20.546 13.2497C20.5463 12.8168 20.4654 12.3878 20.3077 11.9847V11.9938ZM15.0002 19.5013C14.5407 19.5013 14.0858 19.4107 13.6615 19.2346C13.2372 19.0585 12.8518 18.8005 12.5273 18.4752C12.2029 18.1499 11.9459 17.7638 11.7709 17.339C11.5959 16.9142 11.5065 16.4591 11.5077 15.9997C11.5077 15.3067 11.7133 14.6293 12.0984 14.0533C12.4836 13.4773 13.031 13.0284 13.6714 12.7637C14.3118 12.4989 15.0163 12.4301 15.6958 12.566C16.3754 12.7018 16.9993 13.0362 17.4886 13.5269C17.978 14.0175 18.3108 14.6423 18.4448 15.3222C18.5789 16.002 18.5082 16.7064 18.2418 17.3461C17.9754 17.9858 17.5251 18.532 16.9481 18.9157C16.371 19.2993 15.6931 19.5032 15.0002 19.5013ZM18.6668 13.1855C18.4642 13.1641 18.2767 13.0684 18.1404 12.9169C18.0041 12.7654 17.9287 12.5689 17.9287 12.3651C17.9287 12.1613 18.0041 11.9648 18.1404 11.8133C18.2767 11.6618 18.4642 11.5661 18.6668 11.5447C18.8695 11.5661 19.057 11.6618 19.1933 11.8133C19.3296 11.9648 19.405 12.1613 19.405 12.3651C19.405 12.5689 19.3296 12.7654 19.1933 12.9169C19.057 13.0684 18.8695 13.1641 18.6668 13.1855Z" fill="#5C755E"/>
</svg>
