<svg width="31" height="32" viewBox="0 0 31 32" fill="none" xmlns="http://www.w3.org/2000/svg">
<path d="M30.5 16C30.5 24.5755 23.7694 31.5 15.5 31.5C7.23057 31.5 0.5 24.5755 0.5 16C0.5 7.4245 7.23057 0.5 15.5 0.5C23.7694 0.5 30.5 7.4245 30.5 16Z" fill="white" stroke="white"/>
<path fill-rule="evenodd" clip-rule="evenodd" d="M17.5146 13.5453C18.357 12.4609 19.3097 11.911 20.5143 11.9773C22.474 12.0852 23.8533 13.6126 23.9524 15.9971C24.0395 18.0973 23.9777 20.2048 23.9911 22.3087C23.9944 22.8136 23.7832 23.0022 23.3504 22.99C22.7707 22.9736 22.1889 22.9587 21.6106 22.9964C21.0368 23.034 20.8186 22.7762 20.8285 22.1382C20.8511 20.7098 20.8371 19.2804 20.8347 17.8516C20.8338 17.4622 20.8382 17.0709 20.811 16.6834C20.7272 15.4838 20.0985 14.7599 19.1664 14.768C18.2084 14.7763 17.4333 15.6383 17.4164 16.7851C17.3917 18.4733 17.4066 20.1622 17.4034 21.8508C17.4012 22.9815 17.4004 22.9815 16.4032 22.9888C14.247 23.0043 14.2478 23.0043 14.247 20.5898C14.2462 18.1218 14.2622 15.6532 14.2301 13.1858C14.2209 12.4713 14.4342 12.1852 15.0706 12.2519C15.4385 12.2906 15.8125 12.2563 16.184 12.258C17.2923 12.2635 17.2923 12.2641 17.5146 13.5453ZM9.22516 17.5785C9.22516 16.0984 9.24942 14.6176 9.2145 13.1386C9.19845 12.4469 9.43434 12.2075 10.0299 12.2485C10.6076 12.2882 11.1896 12.2708 11.7689 12.2571C12.2042 12.247 12.4009 12.4453 12.3993 12.9485C12.389 16.0645 12.3876 19.1802 12.393 22.2962C12.3938 22.7951 12.2011 23.0006 11.763 22.9903C11.1371 22.9753 10.51 22.9698 9.88458 22.993C9.40446 23.011 9.22411 22.7813 9.22927 22.2523C9.2445 20.6945 9.23466 19.1362 9.23466 17.5784C9.23173 17.5785 9.22845 17.5785 9.22516 17.5785ZM10.7792 10.7123C9.76106 10.7075 9.00696 9.92254 9.00005 8.86037C8.99302 7.81631 9.77137 7.00079 10.7751 7C11.8673 6.99934 12.607 7.75294 12.6026 8.86168C12.5979 9.99077 11.8819 10.7172 10.7792 10.7123Z" fill="#5C755E"/>
</svg>
