<svg width="147" height="22" viewBox="0 0 147 22" fill="none" xmlns="http://www.w3.org/2000/svg">
<path d="M133.724 6.44831L138.276 11L133.724 15.5518" stroke="#5C755E" stroke-width="2" stroke-miterlimit="10" stroke-linecap="round" stroke-linejoin="round"/>
<path d="M0.367188 4.48438H2.9375L5.4375 13.2266L7.96094 4.48438H10.4609L6.53125 16H4.25781L0.367188 4.48438ZM13.7188 7.48438V16H11.4609V7.48438H13.7188ZM13.7188 4.41406V6.46875H11.4609V4.41406H13.7188ZM23.1719 13.5C23.1146 14.0052 22.8516 14.5182 22.3828 15.0391C21.6536 15.8672 20.6328 16.2812 19.3203 16.2812C18.237 16.2812 17.2812 15.9323 16.4531 15.2344C15.625 14.5365 15.2109 13.401 15.2109 11.8281C15.2109 10.3542 15.5833 9.22396 16.3281 8.4375C17.0781 7.65104 18.0495 7.25781 19.2422 7.25781C19.9505 7.25781 20.5885 7.39062 21.1562 7.65625C21.724 7.92188 22.1927 8.34115 22.5625 8.91406C22.8958 9.41927 23.112 10.0052 23.2109 10.6719C23.2682 11.0625 23.2917 11.625 23.2812 12.3594H17.4531C17.4844 13.2135 17.7526 13.8125 18.2578 14.1562C18.5651 14.3698 18.9349 14.4766 19.3672 14.4766C19.8255 14.4766 20.1979 14.3464 20.4844 14.0859C20.6406 13.9453 20.7786 13.75 20.8984 13.5H23.1719ZM20.9688 10.8906C20.9323 10.3021 20.7526 9.85677 20.4297 9.55469C20.112 9.2474 19.7161 9.09375 19.2422 9.09375C18.7266 9.09375 18.3255 9.25521 18.0391 9.57812C17.7578 9.90104 17.5807 10.3385 17.5078 10.8906H20.9688ZM31.25 16L29.9141 9.79688L28.5625 16H26.25L23.8594 7.48438H26.25L27.5781 13.5938L28.8047 7.48438H31.0625L32.3594 13.6172L33.6875 7.48438H36.0078L33.5391 16H31.25ZM48.0234 13.6328H43.7812L42.9844 16H40.4688L44.5781 4.48438H47.2969L51.375 16H48.7656L48.0234 13.6328ZM47.3516 11.6484L45.9141 7.11719L44.4297 11.6484H47.3516ZM52.7109 4.48438H54.9375V16H52.7109V4.48438ZM57.1641 4.48438H59.3906V16H57.1641V4.48438ZM71.0938 11.4844H68.6094V16H66.2578V4.48438H71.9062C72.7135 4.5 73.3333 4.59896 73.7656 4.78125C74.2031 4.96354 74.5729 5.23177 74.875 5.58594C75.125 5.8776 75.3229 6.20052 75.4688 6.55469C75.6146 6.90885 75.6875 7.3125 75.6875 7.76562C75.6875 8.3125 75.5495 8.85156 75.2734 9.38281C74.9974 9.90885 74.5417 10.2812 73.9062 10.5C74.4375 10.7135 74.8125 11.0182 75.0312 11.4141C75.2552 11.8047 75.3672 12.4036 75.3672 13.2109V13.9844C75.3672 14.5104 75.388 14.8672 75.4297 15.0547C75.4922 15.3516 75.638 15.5703 75.8672 15.7109V16H73.2188C73.1458 15.7448 73.0938 15.5391 73.0625 15.3828C73 15.0599 72.9661 14.7292 72.9609 14.3906L72.9453 13.3203C72.9349 12.5859 72.7995 12.0964 72.5391 11.8516C72.2839 11.6068 71.8021 11.4844 71.0938 11.4844ZM72.5547 9.39062C73.0339 9.17188 73.2734 8.73958 73.2734 8.09375C73.2734 7.39583 73.0417 6.92708 72.5781 6.6875C72.3177 6.55208 71.9271 6.48438 71.4062 6.48438H68.6094V9.57812H71.3359C71.8776 9.57812 72.2839 9.51562 72.5547 9.39062ZM84.6875 8.5625C85.4062 9.46354 85.7656 10.5286 85.7656 11.7578C85.7656 13.0078 85.4062 14.0781 84.6875 14.9688C83.9688 15.8542 82.8776 16.2969 81.4141 16.2969C79.9505 16.2969 78.8594 15.8542 78.1406 14.9688C77.4219 14.0781 77.0625 13.0078 77.0625 11.7578C77.0625 10.5286 77.4219 9.46354 78.1406 8.5625C78.8594 7.66146 79.9505 7.21094 81.4141 7.21094C82.8776 7.21094 83.9688 7.66146 84.6875 8.5625ZM81.4062 9.09375C80.7552 9.09375 80.2526 9.32552 79.8984 9.78906C79.5495 10.2474 79.375 10.9036 79.375 11.7578C79.375 12.612 79.5495 13.2708 79.8984 13.7344C80.2526 14.1979 80.7552 14.4297 81.4062 14.4297C82.0573 14.4297 82.5573 14.1979 82.9062 13.7344C83.2552 13.2708 83.4297 12.612 83.4297 11.7578C83.4297 10.9036 83.2552 10.2474 82.9062 9.78906C82.5573 9.32552 82.0573 9.09375 81.4062 9.09375ZM92.8281 14.7969C92.8073 14.8229 92.7552 14.901 92.6719 15.0312C92.5885 15.1615 92.4896 15.276 92.375 15.375C92.026 15.6875 91.6875 15.901 91.3594 16.0156C91.0365 16.1302 90.6562 16.1875 90.2188 16.1875C88.9583 16.1875 88.1094 15.7344 87.6719 14.8281C87.4271 14.3281 87.3047 13.5911 87.3047 12.6172V7.48438H89.5859V12.6172C89.5859 13.1016 89.6432 13.4661 89.7578 13.7109C89.9609 14.1432 90.3594 14.3594 90.9531 14.3594C91.7135 14.3594 92.2344 14.0521 92.5156 13.4375C92.6615 13.1042 92.7344 12.6641 92.7344 12.1172V7.48438H94.9922V16H92.8281V14.7969ZM101.047 14.4141V16.0781L99.9922 16.1172C98.9401 16.1536 98.2214 15.9714 97.8359 15.5703C97.5859 15.3151 97.4609 14.9219 97.4609 14.3906V9.14844H96.2734V7.5625H97.4609V5.1875H99.6641V7.5625H101.047V9.14844H99.6641V13.6484C99.6641 13.9974 99.7083 14.2161 99.7969 14.3047C99.8854 14.388 100.156 14.4297 100.609 14.4297C100.677 14.4297 100.747 14.4297 100.82 14.4297C100.898 14.4245 100.974 14.4193 101.047 14.4141ZM104.766 7.48438V16H102.508V7.48438H104.766ZM104.766 4.41406V6.46875H102.508V4.41406H104.766ZM110.938 9.13281C110.182 9.13281 109.664 9.45312 109.383 10.0938C109.237 10.4323 109.164 10.8646 109.164 11.3906V16H106.945V7.5H109.094V8.74219C109.38 8.30469 109.651 7.98958 109.906 7.79688C110.365 7.45312 110.945 7.28125 111.648 7.28125C112.529 7.28125 113.247 7.51302 113.805 7.97656C114.367 8.4349 114.648 9.19792 114.648 10.2656V16H112.367V10.8203C112.367 10.3724 112.307 10.0286 112.188 9.78906C111.969 9.35156 111.552 9.13281 110.938 9.13281ZM124 13.5C123.943 14.0052 123.68 14.5182 123.211 15.0391C122.482 15.8672 121.461 16.2812 120.148 16.2812C119.065 16.2812 118.109 15.9323 117.281 15.2344C116.453 14.5365 116.039 13.401 116.039 11.8281C116.039 10.3542 116.411 9.22396 117.156 8.4375C117.906 7.65104 118.878 7.25781 120.07 7.25781C120.779 7.25781 121.417 7.39062 121.984 7.65625C122.552 7.92188 123.021 8.34115 123.391 8.91406C123.724 9.41927 123.94 10.0052 124.039 10.6719C124.096 11.0625 124.12 11.625 124.109 12.3594H118.281C118.312 13.2135 118.581 13.8125 119.086 14.1562C119.393 14.3698 119.763 14.4766 120.195 14.4766C120.654 14.4766 121.026 14.3464 121.312 14.0859C121.469 13.9453 121.607 13.75 121.727 13.5H124ZM121.797 10.8906C121.76 10.3021 121.581 9.85677 121.258 9.55469C120.94 9.2474 120.544 9.09375 120.07 9.09375C119.555 9.09375 119.154 9.25521 118.867 9.57812C118.586 9.90104 118.409 10.3385 118.336 10.8906H121.797Z" fill="#5C755E"/>
</svg>
