<svg width="31" height="32" viewBox="0 0 31 32" fill="none" xmlns="http://www.w3.org/2000/svg">
<path d="M30.5 16C30.5 24.5755 23.7694 31.5 15.5 31.5C7.23057 31.5 0.5 24.5755 0.5 16C0.5 7.4245 7.23057 0.5 15.5 0.5C23.7694 0.5 30.5 7.4245 30.5 16Z" fill="white" stroke="white"/>
<path d="M24.9844 21.3359C24.9844 23.3426 23.3426 24.9844 21.3359 24.9844H10.6641C8.65742 24.9844 7.01562 23.3426 7.01562 21.3359V10.6641C7.01562 8.65746 8.65742 7.01562 10.6641 7.01562H21.3359C23.3426 7.01562 24.9844 8.65746 24.9844 10.6641V21.3359Z" fill="#5C755E"/>
<path d="M17.3447 15.1039L21.667 9.7168H20.415L16.7189 14.3238L13.0225 9.7168H8.89551L14.6553 16.8957L10.3326 22.2832H11.5846L15.2811 17.6758L18.9779 22.2832H23.1049L17.3447 15.1039ZM10.9307 10.6933H12.5537L21.0693 21.3066H19.4463L10.9307 10.6933Z" fill="white"/>
</svg>
